<?xml version="1.0" encoding="UTF-8" standalone="no"?>
<!-- Created with Inkscape (http://www.inkscape.org/) -->

<svg
   xmlns:dc="http://purl.org/dc/elements/1.1/"
   xmlns:cc="http://creativecommons.org/ns#"
   xmlns:rdf="http://www.w3.org/1999/02/22-rdf-syntax-ns#"
   xmlns:svg="http://www.w3.org/2000/svg"
   xmlns="http://www.w3.org/2000/svg"
   xmlns:sodipodi="http://sodipodi.sourceforge.net/DTD/sodipodi-0.dtd"
   xmlns:inkscape="http://www.inkscape.org/namespaces/inkscape"
   width="185"
   height="185"
   id="svg2"
   version="1.1"
   inkscape:version="0.48.0 r9654"
   sodipodi:docname="logo.svg">
  <defs
     id="defs4">
    <filter
       inkscape:collect="always"
       id="filter4026">
      <feGaussianBlur
         inkscape:collect="always"
         stdDeviation="2.3582062"
         id="feGaussianBlur4028" />
    </filter>
  </defs>
  <sodipodi:namedview
     id="base"
     pagecolor="#ffffff"
     bordercolor="#666666"
     borderopacity="1.0"
     inkscape:pageopacity="0.0"
     inkscape:pageshadow="2"
     inkscape:zoom="4"
     inkscape:cx="79.278029"
     inkscape:cy="57.249552"
     inkscape:document-units="px"
     inkscape:current-layer="layer1"
     showgrid="false"
     showguides="true"
     inkscape:guide-bbox="true"
     inkscape:window-width="1920"
     inkscape:window-height="1143"
     inkscape:window-x="-2"
     inkscape:window-y="-2"
     inkscape:window-maximized="1"
     fit-margin-top="0.3"
     fit-margin-left="0.3"
     fit-margin-right="0.3"
     fit-margin-bottom="0.3">
    <inkscape:grid
       type="xygrid"
       id="grid2989"
       empspacing="5"
       visible="true"
       enabled="true"
       snapvisiblegridlinesonly="true" />
  </sodipodi:namedview>
  <metadata
     id="metadata7">
    <rdf:RDF>
      <cc:Work
         rdf:about="">
        <dc:format>image/svg+xml</dc:format>
        <dc:type
           rdf:resource="http://purl.org/dc/dcmitype/StillImage" />
        <dc:title />
      </cc:Work>
    </rdf:RDF>
  </metadata>
  <g
     inkscape:label="Layer 1"
     inkscape:groupmode="layer"
     id="layer1"
     transform="translate(-786.75418,-599.97502)">
    <path
       style="fill:#000000;fill-opacity:1;stroke:none;filter:url(#filter4026)"
       d="m 837.75714,588.97502 0,23.59375 -67.96875,29.125 c -0.87307,0.3674 -1.49865,1.27205 -1.53125,2.21875 -0.0326,0.9467 0.52931,1.8858 1.375,2.3125 l 68.125,34.0625 0,36.4375 -44.03125,0 -0.21875,0 c -1.10283,0.1093 -2.03525,1.1418 -2.03125,2.25 l 0,39.4375 c 0.002,1.1776 1.0724,2.25 2.25,2.25 l 44.03125,0 0,53.3125 6,0 0,-37 107,0 3,0 0,-3 0,-59.4375 27,0 c 0.5888,-9e-4 1.1241,-0.5362 1.125,-1.125 l 0,-39.4375 c -9e-4,-0.5888 -0.5362,-1.1241 -1.125,-1.125 l -27,0 0,-28.875 0,-3 -3,0 -40,0 0,0.28125 -67,-28.71875 0,-23.5625 z m 73,57.8125 0,0.1875 37,0 0,25.875 -74.03125,0 c -0.0312,-10e-4 -0.0625,-10e-4 -0.0937,0 -0.55686,0.047 -1.03225,0.5662 -1.03125,1.125 l 0,39.4375 c 9e-4,0.5888 0.5362,1.1241 1.125,1.125 l 74.03125,0 0,56.4375 -104,0 0,-10.3125 57,0 c 1.1776,0 2.248,-1.0724 2.25,-2.25 l 0,-39.4375 c 0,-1.1776 -1.0724,-2.25 -2.25,-2.25 l -57,0 0,-36.4375 z"
       id="rect3056-0-1"
       inkscape:connector-curvature="0"
       sodipodi:nodetypes="cccscccccccsccccccccccccccccccccccccccccccccccscssccc" />
    <g
       id="g4011">
      <path
         sodipodi:nodetypes="ccccc"
         inkscape:connector-curvature="0"
         id="rect2985"
         d="m 766.75419,639.97502 69.99998,-29.99999 70.00001,29.99999 -70,35 z"
         style="fill:#c3d9ff;fill-opacity:1;stroke:#6482b9;stroke-width:4.99409103;stroke-linejoin:round;stroke-miterlimit:4;stroke-opacity:1;stroke-dasharray:none" />
      <path
         sodipodi:nodetypes="cc"
         inkscape:connector-curvature="0"
         id="path3126"
         d="m 836.75418,674.97502 0,55"
         style="fill:none;stroke:#6482b9;stroke-width:6;stroke-linecap:butt;stroke-linejoin:miter;stroke-miterlimit:4;stroke-opacity:1;stroke-dasharray:none" />
      <path
         sodipodi:nodetypes="ccccc"
         inkscape:connector-curvature="0"
         id="rect3012-0-4"
         d="m 789.72591,714.97502 107.02827,0 0,39.43147 -107.02828,0 z"
         style="fill:#c3d9ff;fill-opacity:1;stroke:#6482b9;stroke-width:4.50645351;stroke-linejoin:round;stroke-miterlimit:4;stroke-opacity:1;stroke-dasharray:none" />
      <text
         sodipodi:linespacing="125%"
         id="text3035-9"
         y="747.23077"
         x="795.00629"
         style="font-size:45.61640549px;font-style:normal;font-weight:normal;line-height:125%;letter-spacing:0px;word-spacing:0px;fill:#000000;fill-opacity:1;stroke:#6482b9;stroke-width:3.42123055;stroke-miterlimit:4;stroke-opacity:0;stroke-dasharray:none;font-family:Bitstream Vera Sans"
         xml:space="preserve"><tspan
           style="font-size:40px;font-style:normal;font-variant:normal;font-weight:bold;font-stretch:normal;text-align:start;line-height:125%;writing-mode:lr;text-anchor:start;stroke-width:3.42123055000000020;font-family:Courier 10 Pitch;-inkscape-font-specification:Courier 10 Pitch Bold"
           y="747.23077"
           x="795.00629"
           id="tspan3037-1"
           sodipodi:role="line">then</tspan></text>
      <path
         sodipodi:nodetypes="cc"
         inkscape:connector-curvature="0"
         id="path3126-8"
         d="m 836.75418,584.97502 0,25"
         style="fill:none;stroke:#6482b9;stroke-width:6;stroke-linecap:butt;stroke-linejoin:miter;stroke-miterlimit:4;stroke-opacity:1;stroke-dasharray:none" />
      <path
         sodipodi:nodetypes="cccc"
         inkscape:connector-curvature="0"
         id="path3126-8-8"
         d="m 906.75418,639.97502 40,0 0,130 -110,0"
         style="fill:none;stroke:#6482b9;stroke-width:6;stroke-linecap:butt;stroke-linejoin:miter;stroke-miterlimit:4;stroke-opacity:1;stroke-dasharray:none" />
      <path
         style="fill:#ff9933;fill-opacity:1;stroke:#ff9933;stroke-width:2.25322676;stroke-linejoin:round;stroke-miterlimit:4;stroke-opacity:1;stroke-dasharray:none"
         d="m 869.72591,669.97502 107.02827,0 0,39.43147 -107.02827,0 z"
         id="rect3012-0"
         inkscape:connector-curvature="0"
         sodipodi:nodetypes="ccccc" />
      <text
         sodipodi:linespacing="125%"
         id="text3035"
         y="702.23077"
         x="877.50671"
         style="font-size:45.61640549px;font-style:normal;font-weight:normal;line-height:125%;letter-spacing:0px;word-spacing:0px;fill:#000000;fill-opacity:1;stroke:none;font-family:Bitstream Vera Sans"
         xml:space="preserve"><tspan
           y="702.23077"
           x="877.50671"
           id="tspan3037"
           sodipodi:role="line"
           style="font-size:40px;font-style:normal;font-variant:normal;font-weight:bold;font-stretch:normal;text-align:start;line-height:125%;writing-mode:lr;text-anchor:start;font-family:Courier 10 Pitch;-inkscape-font-specification:Courier 10 Pitch Bold">else</tspan></text>
      <path
         sodipodi:nodetypes="cc"
         inkscape:connector-curvature="0"
         id="path3126-2"
         d="m 836.75418,754.97502 0,55"
         style="fill:none;stroke:#6482b9;stroke-width:6;stroke-linecap:butt;stroke-linejoin:miter;stroke-miterlimit:4;stroke-opacity:1;stroke-dasharray:none" />
    </g>
    <text
       sodipodi:linespacing="125%"
       id="text3035-1"
       y="658.60303"
       x="807.17267"
       style="font-size:45.61640549px;font-style:normal;font-weight:normal;line-height:125%;letter-spacing:0px;word-spacing:0px;fill:#000000;fill-opacity:1;stroke:none;font-family:Bitstream Vera Sans"
       xml:space="preserve"><tspan
         y="658.60303"
         x="807.17267"
         id="tspan3037-6"
         sodipodi:role="line"
         style="font-size:48px;font-style:normal;font-variant:normal;font-weight:bold;font-stretch:normal;text-align:start;line-height:125%;writing-mode:lr-tb;text-anchor:start;font-family:Courier 10 Pitch;-inkscape-font-specification:Courier 10 Pitch Bold">if</tspan></text>
  </g>
</svg>
